<?xml version="1.0" encoding="utf-8"?>
<!-- Generator: Adobe Illustrator 15.0.0, SVG Export Plug-In . SVG Version: 6.00 Build 0)  -->
<!DOCTYPE svg PUBLIC "-//W3C//DTD SVG 1.1//EN" "http://www.w3.org/Graphics/SVG/1.1/DTD/svg11.dtd">
<svg version="1.1" id="Layer_1" xmlns="http://www.w3.org/2000/svg" xmlns:xlink="http://www.w3.org/1999/xlink" x="0px" y="0px"
	 width="283px" height="74.624px" viewBox="-139.08 4.367 283 74.624" enable-background="new -139.08 4.367 283 74.624"
	 xml:space="preserve">
<path fill="#282A5F" d="M-49.854,40.603c-0.114-0.229-0.229-0.315-0.43-0.315h-0.718c-0.229,0-0.315,0.086-0.43,0.315l-4.963,12.854
	c0,0.115-0.115,0.315,0,0.431c0.086,0.085,0.201,0.085,0.287,0.085h0.746c0.315,0,0.517-0.085,0.603-0.4l1.463-3.96h4.877
	l1.463,3.96c0.086,0.315,0.315,0.4,0.631,0.4h0.918c0.201,0,0.315-0.085,0.43-0.2c0.086-0.087,0.086-0.2,0-0.402L-49.854,40.603z
	 M-48.821,48.263h-3.959l1.979-5.394L-48.821,48.263z"/>
<path fill="#282A5F" d="M-42.395,39.856l-0.718,0.115c-0.315,0.115-0.43,0.2-0.43,0.516v13.084c0,0.315,0.229,0.516,0.516,0.516
	h0.631c0.315,0,0.516-0.2,0.516-0.516V40.287C-41.878,39.972-42.079,39.771-42.395,39.856"/>
<path fill="#282A5F" d="M-34.906,44.132c-1.148,0-2.181,0.516-2.812,1.033v-4.792c0-0.286-0.201-0.517-0.517-0.401h-0.631
	c-0.315,0.115-0.402,0.2-0.402,0.516v13.197c0,0.518,0.402,0.518,0.516,0.518h0.517c0.402,0,0.517-0.23,0.517-0.518v-0.315
	c0.717,0.718,1.664,1.033,2.697,1.033c3.012,0,4.361-2.61,4.361-5.078C-30.775,45.996-32.325,44.132-34.906,44.132 M-32.439,49.21
	c0,1.664-0.718,3.644-2.697,3.644c-1.033,0-1.865-0.546-2.496-1.349v-4.878c0.631-0.746,1.778-1.262,2.61-1.262
	C-32.841,45.48-32.439,47.545-32.439,49.21"/>
<path fill="#282A5F" d="M-20.476,52.854h-0.114c-0.115,0-0.201,0-0.201-0.115c-0.114-0.115-0.114-0.516-0.114-1.033v-6.971
	c0-0.287-0.115-0.518-0.517-0.518h-0.517c-0.517,0-0.517,0.315-0.517,0.518v0.315c-0.746-0.718-1.779-0.918-2.496-0.918
	c-2.611,0-4.361,2.18-4.361,5.278c0,2.295,1.033,4.877,4.045,4.877c1.033,0,2.296-0.603,2.898-1.349
	c0.115,0.431,0.23,0.633,0.431,0.833s0.517,0.315,1.033,0.315h0.516c0.115,0,0.431,0,0.431-0.402v-0.544
	C-20.073,52.938-20.188,52.854-20.476,52.854 M-25.267,52.854c-1.233,0-2.496-1.148-2.496-3.644c0-2.296,1.147-3.845,2.697-3.845
	c1.033,0,1.979,0.631,2.41,1.549v3.759C-22.886,51.705-23.918,52.854-25.267,52.854"/>
<path fill="#282A5F" d="M-13.647,44.132c-1.147,0-2.266,0.4-3.098,1.033v-0.316c0-0.316-0.201-0.517-0.517-0.517h-0.631
	c-0.315,0-0.517,0.2-0.517,0.517v8.723c0,0.315,0.201,0.516,0.517,0.516h0.631c0.316,0,0.517-0.2,0.517-0.516l0,0v-6.944
	c0.717-0.631,1.865-1.146,2.812-1.146c1.635,0,1.951,1.033,1.951,2.582v5.622c0,0.287,0.201,0.518,0.517,0.518h0.631
	c0.315,0,0.517-0.23,0.517-0.518v-5.823C-10.434,45.25-11.466,44.132-13.647,44.132"/>
<path fill="#282A5F" d="M-7.105,41.32c-0.603,0-0.918,0.401-0.918,0.946c0,0.603,0.402,0.918,0.918,0.918
	c0.631,0,1.033-0.401,1.033-0.918C-6.073,41.722-6.475,41.32-7.105,41.32"/>
<path fill="#282A5F" d="M-6.79,44.332h-0.631c-0.288,0-0.517,0.2-0.517,0.517v8.836c0,0.287,0.229,0.518,0.517,0.518h0.631
	c0.315,0,0.517-0.23,0.517-0.518v-8.836C-6.273,44.447-6.475,44.332-6.79,44.332"/>
<path fill="#282A5F" d="M4.744,52.854H4.542c-0.229,0-0.229,0-0.229-0.115c-0.087-0.115-0.087-0.516-0.087-1.033v-6.971
	c0-0.287-0.229-0.518-0.516-0.518H3.165c-0.516,0-0.516,0.315-0.516,0.518v0.315c-0.717-0.718-1.75-0.918-2.468-0.918
	c-2.61,0-4.361,2.18-4.361,5.278c0,2.295,1.033,4.877,4.045,4.877c1.033,0,2.267-0.603,2.898-1.349c0,0.431,0.201,0.633,0.401,0.833
	c0.23,0.2,0.546,0.315,1.062,0.315h0.518c0.085,0,0.401,0,0.401-0.315l0,0v-0.516C5.06,52.938,4.944,52.854,4.744,52.854
	 M-0.134,52.854c-1.262,0-2.496-1.148-2.496-3.644c0-2.296,1.147-3.845,2.697-3.845c1.033,0,1.979,0.631,2.381,1.549v3.759
	C2.247,51.705,1.214,52.854-0.134,52.854"/>
<path fill="#282A5F" d="M11.486,44.132c-1.148,0-2.295,0.4-3.128,1.033v-0.316c0-0.316-0.2-0.517-0.516-0.517H7.239
	c-0.315,0-0.516,0.2-0.516,0.517v8.723c0,0.315,0.2,0.516,0.516,0.516h0.604c0.315,0,0.516-0.2,0.516-0.516l0,0v-6.944
	c0.746-0.631,1.894-1.146,2.812-1.146c1.664,0,1.979,1.033,1.979,2.582v5.622c0,0.287,0.201,0.518,0.517,0.518h0.631
	c0.288,0,0.517-0.23,0.517-0.518v-5.823C14.813,45.25,13.781,44.132,11.486,44.132"/>
<path fill="#282A5F" d="M20.523,48.063h-2.927c-0.086,0-0.517,0-0.517,0.431v0.516c0,0.201,0.115,0.401,0.517,0.401h2.927
	c0.401,0,0.516-0.2,0.516-0.401v-0.516C20.925,48.063,20.609,48.063,20.523,48.063"/>
<path fill="#282A5F" d="M28.614,40.603c-0.115-0.229-0.201-0.315-0.431-0.315h-0.718c-0.2,0-0.315,0.086-0.4,0.315l-4.993,12.854
	c0,0.115-0.114,0.315,0,0.431c0.115,0.085,0.201,0.085,0.315,0.085h0.717c0.315,0,0.518-0.085,0.632-0.4l1.463-3.96h4.878
	l1.434,3.96c0.115,0.315,0.315,0.4,0.631,0.4h0.948c0.2,0,0.287-0.085,0.287-0.2c0.113-0.087,0.113-0.2,0-0.402L28.614,40.603z
	 M29.646,48.263h-3.93l1.95-5.394L29.646,48.263z"/>
<path fill="#282A5F" d="M45.455,44.132c-1.148,0-2.295,0.4-3.213,1.033c-0.746-0.948-1.895-1.033-2.641-1.033
	c-1.033,0-2.065,0.4-2.868,1.033v-0.316c0-0.316-0.229-0.517-0.546-0.517h-0.631c-0.287,0-0.517,0.2-0.517,0.517v8.723
	c0,0.315,0.229,0.516,0.517,0.516h0.631c0.316,0,0.546-0.2,0.546-0.516l0,0v-6.944c0.803-0.746,1.722-1.146,2.581-1.146
	c1.32,0,1.951,0.716,1.951,2.582v5.622c0,0.287,0.23,0.518,0.517,0.518h0.632c0.286,0,0.516-0.23,0.516-0.518v-5.823
	c0-0.632,0-1.032-0.229-1.55c0.746-0.516,1.722-0.831,2.41-0.831c1.492,0,2.066,0.716,2.066,2.582v5.622
	c0,0.287,0.229,0.518,0.573,0.518h0.573c0.345,0,0.575-0.23,0.575-0.518v-5.823C48.783,45.365,47.636,44.132,45.455,44.132"/>
<path fill="#282A5F" d="M55.21,44.132c-2.755,0-4.591,2.064-4.591,5.078c0,3.213,1.778,5.077,4.705,5.077
	c0.803,0,2.066-0.2,2.869-0.516c0.344-0.087,0.459-0.315,0.344-0.631l-0.113-0.402c-0.115-0.315-0.345-0.431-0.633-0.2
	c-0.631,0.2-1.549,0.4-2.353,0.4c-2.18,0-3.041-1.749-3.155-3.413h6.025c0.631,0,0.688-0.201,0.688-0.717v-0.546
	C58.997,45.796,57.505,44.132,55.21,44.132 M55.095,45.365c1.435,0,2.296,0.946,2.296,2.61v0.201h-5.107
	C52.455,46.829,53.316,45.365,55.095,45.365"/>
<path fill="#282A5F" d="M65.251,44.132c-0.172,0-0.402-0.115-0.516-0.115c-0.804,0-1.551,0.315-2.066,0.946v-0.229
	c0-0.287-0.229-0.518-0.517-0.518h-0.517c-0.344,0-0.516,0.23-0.516,0.518v8.722c0,0.315,0.172,0.516,0.516,0.516h0.574
	c0.344,0,0.574-0.2,0.574-0.516v-6.942c0.516-0.718,1.262-1.148,1.836-1.148c0.229,0,0.344,0,0.573,0
	c0.173,0.115,0.344-0.115,0.459-0.315l0.115-0.603C65.537,44.447,65.481,44.217,65.251,44.132"/>
<path fill="#282A5F" d="M67.834,41.32c-0.575,0-1.033,0.401-1.033,0.946c0,0.603,0.458,0.918,1.033,0.918
	c0.631,0,1.032-0.401,1.032-0.918C68.866,41.722,68.465,41.32,67.834,41.32"/>
<path fill="#282A5F" d="M68.178,44.332h-0.632c-0.287,0-0.516,0.2-0.516,0.517v8.836c0,0.287,0.229,0.518,0.516,0.518h0.632
	c0.287,0,0.517-0.23,0.517-0.518v-8.836C68.694,44.447,68.579,44.332,68.178,44.332"/>
<path fill="#282A5F" d="M78.333,52.738c-0.056-0.315-0.286-0.315-0.286-0.315c-0.114,0-0.114,0-0.229,0.115
	c-0.516,0.2-1.377,0.4-2.181,0.4c-2.697,0-2.983-2.696-2.983-3.844c0-2.266,1.263-3.729,3.099-3.729c0.804,0,1.55,0.2,2.065,0.516
	c0.115,0,0.115,0,0.229,0c0.286,0,0.286-0.2,0.401-0.315l0.058-0.315c0.115-0.2,0.115-0.401-0.173-0.603
	c-0.631-0.431-1.664-0.631-2.466-0.631c-2.813,0-4.82,2.066-4.82,5.078c0,3.213,1.721,5.107,4.705,5.107
	c0.573,0,1.664-0.115,2.581-0.518c0.288-0.229,0.288-0.429,0.288-0.631L78.333,52.738z"/>
<path fill="#282A5F" d="M88.318,52.854h-0.115c-0.172,0-0.172,0-0.172-0.115c-0.115-0.115-0.115-0.516-0.115-1.033v-6.971
	c0-0.287-0.229-0.518-0.573-0.518h-0.574c-0.573,0-0.573,0.315-0.573,0.518v0.315c-0.689-0.718-1.722-0.918-2.468-0.918
	c-2.467,0-4.361,2.18-4.361,5.278c0,2.295,1.091,4.877,4.074,4.877c1.033,0,2.296-0.603,2.869-1.349
	c0.114,0.431,0.229,0.633,0.459,0.833c0.173,0.2,0.459,0.315,1.032,0.315h0.518c0.058,0,0.401,0,0.401-0.402v-0.544
	C88.72,52.938,88.605,52.854,88.318,52.854 M83.556,52.854c-1.262,0-2.525-1.148-2.525-3.644c0-2.296,1.148-3.845,2.697-3.845
	c1.09,0,2.009,0.631,2.41,1.549v3.759C85.908,51.705,84.875,52.854,83.556,52.854"/>
<path fill="#282A5F" d="M95.031,44.132c-1.147,0-2.295,0.4-3.099,1.033v-0.316c0-0.316-0.229-0.517-0.516-0.517h-0.631
	c-0.288,0-0.518,0.2-0.518,0.517v8.723c0,0.315,0.229,0.516,0.518,0.516h0.631c0.287,0,0.516-0.2,0.516-0.516l0,0v-6.944
	c0.746-0.631,1.837-1.146,2.813-1.146c1.664,0,2.008,1.033,2.008,2.582v5.622c0,0.287,0.172,0.518,0.46,0.518h0.631
	c0.287,0,0.516-0.23,0.516-0.518v-5.823C98.359,45.25,97.327,44.132,95.031,44.132"/>
<path fill="#282A5F" d="M-49.251,61.978c-1.234-0.718-2.381-1.033-5.078-1.033h-2.381c-0.316,0-0.517,0.2-0.517,0.516v12.768
	c0,0.286,0.201,0.517,0.517,0.517h3.213c2.266,0,3.93-0.517,4.877-1.492c1.234-1.205,1.979-3.07,1.979-5.365
	C-46.555,65.189-47.473,63.01-49.251,61.978 M-48.305,67.887c0,1.865-0.516,3.299-1.463,4.332c-0.918,0.976-2.18,1.033-4.045,1.033
	h-1.549V62.406h1.75c1.665,0,2.812,0.288,3.644,0.919C-48.936,64.272-48.305,65.907-48.305,67.887"/>
<path fill="#282A5F" d="M-40.415,64.788c-2.697,0-4.562,2.065-4.562,5.078c0,3.214,1.75,5.107,4.648,5.107
	c0.832,0,2.094-0.229,2.926-0.574c0.315-0.058,0.402-0.286,0.315-0.573l-0.114-0.459c-0.115-0.287-0.43-0.287-0.631-0.173
	c-0.517,0.173-1.549,0.401-2.381,0.401c-2.18,0-3.012-1.721-3.099-3.414h5.997c0.631,0,0.746-0.2,0.746-0.717v-0.43
	C-36.571,66.452-38.148,64.788-40.415,64.788 M-40.415,66.137c1.435,0,2.267,0.919,2.267,2.583v0.2h-5.078
	C-43.112,67.571-42.194,66.137-40.415,66.137"/>
<path fill="#282A5F" d="M-28.078,64.989h-0.603c-0.315,0-0.431,0.2-0.517,0.402l-2.41,7.287l-2.467-7.287
	c-0.115-0.288-0.316-0.288-0.632-0.288h-0.746c-0.201,0-0.287,0.086-0.402,0.201c-0.115,0.087-0.115,0.201,0,0.402l3.127,8.807
	c0.086,0.23,0.287,0.46,0.603,0.46h0.746c0.287,0,0.401-0.115,0.517-0.46l3.098-8.807c0.115-0.201,0-0.315,0-0.402
	C-27.763,64.989-27.849,64.989-28.078,64.989"/>
<path fill="#282A5F" d="M-22.139,64.788c-2.697,0-4.591,2.065-4.591,5.078c0,3.214,1.779,5.107,4.676,5.107
	c0.832,0,2.095-0.229,2.927-0.574c0.287-0.058,0.402-0.286,0.287-0.573l-0.085-0.459c-0.115-0.287-0.431-0.287-0.631-0.173
	c-0.516,0.173-1.549,0.401-2.381,0.401c-2.18,0-3.012-1.721-3.127-3.414h6.025c0.631,0,0.746-0.2,0.746-0.717v-0.43
	C-18.41,66.452-19.959,64.788-22.139,64.788 M-22.254,66.137c1.463,0,2.295,0.919,2.295,2.583v0.2h-5.107
	C-24.836,67.571-24.033,66.137-22.254,66.137"/>
<path fill="#282A5F" d="M-15.397,60.514l-0.631,0.115c-0.316,0.114-0.402,0.2-0.402,0.516v13.083c0,0.286,0.201,0.517,0.517,0.517
	h0.602c0.316,0,0.517-0.23,0.517-0.517l0,0V60.944C-14.881,60.629-14.996,60.427-15.397,60.514"/>
<path fill="#282A5F" d="M-8.454,64.788c-2.697,0-4.562,2.065-4.562,5.078c0,3.214,1.664,5.107,4.475,5.107
	c2.697,0,4.562-2.066,4.562-5.107C-3.979,66.653-5.643,64.788-8.454,64.788 M-8.541,73.596c-2.496,0-2.811-2.696-2.811-3.844
	c0-0.832,0.201-3.729,2.897-3.729c0.947,0,1.664,0.43,2.181,1.146c0.517,0.833,0.631,1.866,0.631,2.583
	C-5.643,70.813-5.843,73.596-8.541,73.596"/>
<path fill="#282A5F" d="M2.046,64.788c-1.061,0-2.094,0.401-2.812,1.033v-0.315c0-0.517-0.43-0.517-0.631-0.517h-0.517
	c-0.315,0-0.517,0.2-0.517,0.517v12.968c0,0.287,0.201,0.517,0.517,0.517h0.631c0.315,0,0.517-0.229,0.517-0.517v-4.418
	c0.631,0.573,1.549,0.918,2.496,0.918c3.013,0,4.447-2.64,4.447-5.107C6.178,66.768,4.542,64.788,2.046,64.788 M1.817,66.137
	c1.779,0,2.725,1.349,2.725,3.729c0,2.353-1.062,3.845-2.811,3.845c-0.947,0-1.979-0.631-2.496-1.492v-4.647
	C-0.249,66.653,0.899,66.137,1.817,66.137"/>
<path fill="#282A5F" d="M18.142,64.788c-1.147,0-2.295,0.401-3.241,1.033c-0.518-0.718-1.435-1.033-2.583-1.033
	c-1.033,0-2.065,0.401-2.897,1.033v-0.315c0-0.316-0.229-0.517-0.517-0.517H8.272c-0.316,0-0.517,0.2-0.517,0.517v8.722
	c0,0.286,0.2,0.517,0.517,0.517h0.631c0.288,0,0.517-0.23,0.517-0.517l0,0v-6.943c0.832-0.746,1.75-1.147,2.582-1.147
	c1.349,0,1.979,0.717,1.979,2.496v5.595c0,0.286,0.201,0.517,0.517,0.517h0.631c0.316,0,0.517-0.23,0.517-0.517v-5.823
	c0-0.604-0.114-1.033-0.2-1.551c0.717-0.516,1.635-0.831,2.381-0.831c1.435,0,2.066,0.745,2.066,2.495v5.71
	c0,0.286,0.2,0.517,0.516,0.517h0.631c0.315,0,0.517-0.23,0.517-0.517v-5.823C21.44,66.022,20.323,64.788,18.142,64.788"/>
<path fill="#282A5F" d="M27.896,64.788c-2.697,0-4.59,2.065-4.59,5.078c0,3.214,1.777,5.107,4.676,5.107
	c0.832,0,2.095-0.229,2.927-0.574c0.286-0.058,0.401-0.286,0.286-0.573l-0.085-0.459c-0.115-0.287-0.316-0.345-0.632-0.173
	c-0.517,0.173-1.549,0.401-2.382,0.401c-1.031,0-1.778-0.344-2.38-1.032c-0.518-0.632-0.746-1.491-0.746-2.382h6.024
	c0.631,0,0.746-0.2,0.746-0.717v-0.43C31.741,66.452,30.162,64.788,27.896,64.788 M27.896,66.137c1.435,0,2.266,0.919,2.266,2.583
	v0.2h-5.078C25.286,67.571,26.117,66.137,27.896,66.137"/>
<path fill="#282A5F" d="M38.168,64.788c-1.148,0-2.296,0.401-3.128,1.033v-0.315c0-0.316-0.201-0.517-0.517-0.517h-0.603
	c-0.315,0-0.544,0.2-0.544,0.517v8.722c0,0.286,0.229,0.517,0.544,0.517h0.603c0.315,0,0.517-0.23,0.517-0.517l0,0v-6.943
	c0.747-0.631,1.864-1.147,2.84-1.147c1.607,0,1.952,1.032,1.952,2.496v5.595c0,0.286,0.229,0.517,0.516,0.517h0.631
	c0.287,0,0.518-0.23,0.518-0.517v-5.823C41.496,66.022,40.463,64.788,38.168,64.788"/>
<path fill="#282A5F" d="M48.898,73.596c-0.115-0.229-0.23-0.344-0.575-0.229c-0.229,0.115-0.573,0.229-1.146,0.229
	c-0.46,0-0.804-0.113-1.033-0.344c-0.287-0.229-0.287-0.803-0.287-1.377l0,0v-5.652h2.181c0.057,0,0.401,0,0.401-0.401v-0.517
	c0-0.431-0.345-0.431-0.401-0.431h-2.181v-2.266c0-0.315-0.229-0.518-0.401-0.518l-0.86,0.087c-0.288,0.115-0.402,0.229-0.402,0.517
	v2.094h-0.919c-0.113,0-0.458,0-0.458,0.401v0.718c0,0.229,0.114,0.431,0.458,0.431h0.919v5.423c0,1.146,0,1.95,0.632,2.581
	c0.516,0.517,1.435,0.747,2.123,0.747s1.376-0.115,1.721-0.345c0.287-0.115,0.401-0.345,0.287-0.517L48.898,73.596z"/>
<path fill="#282A5F" d="M62.325,60.944h-6.542c-0.287,0-0.459,0.2-0.459,0.516v12.768c0,0.286,0.172,0.517,0.459,0.517h0.746
	c0.286,0,0.517-0.23,0.517-0.517v-6.14h4.59c0.402,0,0.517-0.201,0.517-0.401v-0.518c0-0.2-0.114-0.401-0.517-0.401h-4.59v-4.361
	h5.164c0.344,0,0.574-0.113,0.574-0.429l0.114-0.518c0-0.114,0-0.2-0.114-0.315C62.554,60.944,62.44,60.944,62.325,60.944"/>
<path fill="#282A5F" d="M67.719,64.788c-2.64,0-4.534,2.065-4.534,5.078c0,3.214,1.664,5.107,4.361,5.107s4.533-2.066,4.533-5.107
	C72.194,66.653,70.587,64.788,67.719,64.788 M67.661,73.596c-2.468,0-2.813-2.696-2.813-3.844c0-0.832,0.23-3.729,2.87-3.729
	c2.639,0,2.868,2.897,2.868,3.844S70.357,73.596,67.661,73.596"/>
<path fill="#282A5F" d="M81.03,64.989h-0.573c-0.345,0-0.573,0.2-0.573,0.517v6.828c-0.574,0.688-1.606,1.148-2.582,1.148
	c-0.633,0-1.148-0.23-1.435-0.46c-0.345-0.459-0.574-1.091-0.574-2.123v-5.508c0-0.288-0.172-0.518-0.459-0.518h-0.631
	c-0.287,0-0.518,0.229-0.518,0.518v5.681c0,1.377,0.287,2.295,0.919,2.983c0.517,0.458,1.376,0.803,2.409,0.803
	s2.065-0.345,2.87-1.032v0.287c0,0.286,0.229,0.516,0.573,0.516h0.573c0.345,0,0.517-0.229,0.517-0.516l0,0v-8.809
	C81.547,64.989,81.261,64.989,81.03,64.989"/>
<path fill="#282A5F" d="M88.605,64.788c-1.148,0-2.296,0.401-3.1,1.033v-0.315c0-0.316-0.229-0.517-0.516-0.517h-0.517
	c-0.345,0-0.517,0.2-0.517,0.517v8.722c0,0.286,0.172,0.517,0.517,0.517h0.574c0.345,0,0.573-0.23,0.573-0.517l0,0v-6.943
	c0.688-0.631,1.836-1.147,2.755-1.147c1.722,0,2.008,1.032,2.008,2.496v5.595c0,0.286,0.172,0.517,0.517,0.517h0.631
	c0.288,0,0.517-0.23,0.517-0.517v-5.823C91.933,66.022,90.786,64.788,88.605,64.788"/>
<path fill="#282A5F" d="M101.573,60.514l-0.574,0.115c-0.345,0.114-0.458,0.315-0.458,0.516v4.563
	c-0.689-0.604-1.722-0.919-2.468-0.919c-2.582,0-4.477,2.065-4.477,5.078c0,2.468,1.148,5.107,4.189,5.107
	c1.033,0,2.065-0.46,2.755-1.147v0.401c0,0.401,0.229,0.517,0.573,0.517h0.459c0.345,0,0.574-0.23,0.574-0.517V60.944
	C102.147,60.629,101.918,60.427,101.573,60.514 M97.958,73.596c-1.664,0-2.697-1.435-2.697-3.729s1.148-3.729,2.87-3.729
	c0.975,0,2.008,0.631,2.41,1.435v4.647C99.966,73.022,98.933,73.596,97.958,73.596"/>
<path fill="#282A5F" d="M113.222,73.94c0-0.345-0.115-0.458-0.402-0.458h-0.114c-0.23,0-0.23,0-0.23-0.115
	c-0.113-0.115-0.113-0.46-0.113-1.033v-6.942c0-0.288-0.173-0.518-0.46-0.518h-0.573c-0.459,0-0.459,0.315-0.459,0.518v0.315
	c-0.805-0.718-1.837-0.919-2.524-0.919c-2.525,0-4.362,2.181-4.362,5.279c0,2.267,1.033,4.906,4.018,4.906
	c1.032,0,2.295-0.632,2.926-1.491c0,0.458,0.229,0.631,0.402,0.859c0.229,0.172,0.573,0.287,1.033,0.287h0.573
	c0.115,0,0.401,0,0.401-0.401l0,0V73.94H113.222z M108,73.482c-1.205,0-2.468-1.148-2.468-3.501c0-2.295,1.147-3.845,2.697-3.845
	c1.033,0,1.95,0.631,2.41,1.55v3.729C110.409,72.334,109.491,73.482,108,73.482"/>
<path fill="#282A5F" d="M120.05,73.596c-0.115-0.229-0.173-0.344-0.459-0.229c-0.229,0.115-0.689,0.229-1.147,0.229
	c-0.574,0-0.861-0.113-1.033-0.344c-0.344-0.229-0.344-0.803-0.344-1.377l0,0v-5.652h2.18c0.115,0,0.402,0,0.402-0.401v-0.517
	c0-0.431-0.287-0.431-0.402-0.431h-2.18v-2.266c0-0.431-0.23-0.518-0.46-0.518l-0.804,0.087c-0.286,0.115-0.4,0.229-0.4,0.517v2.094
	h-0.977c-0.057,0-0.345,0-0.345,0.401v0.718c0,0.229,0.115,0.431,0.345,0.431h0.977v5.423c0,1.146,0,1.95,0.631,2.581
	c0.516,0.517,1.434,0.747,2.18,0.747c0.575,0,1.378-0.115,1.664-0.345c0.287-0.115,0.402-0.345,0.287-0.517L120.05,73.596z"/>
<path fill="#282A5F" d="M122.46,61.978c-0.631,0-0.919,0.429-0.919,0.946c0,0.603,0.402,0.918,0.919,0.918
	c0.631,0,1.033-0.402,1.033-0.918C123.493,62.406,123.091,61.978,122.46,61.978"/>
<path fill="#282A5F" d="M122.805,64.989h-0.689c-0.286,0-0.459,0.2-0.459,0.517v8.722c0,0.286,0.173,0.517,0.459,0.517h0.689
	c0.286,0,0.458-0.23,0.458-0.517v-8.836C123.263,65.189,123.091,64.989,122.805,64.989"/>
<path fill="#282A5F" d="M129.805,64.788c-2.64,0-4.534,2.065-4.534,5.078c0,3.214,1.664,5.107,4.419,5.107
	c2.754,0,4.591-2.066,4.591-5.107C134.28,66.653,132.673,64.788,129.805,64.788 M129.689,73.596c-2.467,0-2.755-2.696-2.755-3.844
	c0-0.832,0.23-3.729,2.87-3.729c2.639,0,2.868,2.897,2.868,3.844S132.443,73.596,129.689,73.596"/>
<path fill="#282A5F" d="M140.592,64.788c-1.147,0-2.237,0.401-3.099,1.033v-0.315c0-0.316-0.229-0.517-0.459-0.517h-0.689
	c-0.286,0-0.458,0.2-0.458,0.517v8.722c0,0.286,0.172,0.517,0.458,0.517h0.689c0.229,0,0.459-0.23,0.459-0.517l0,0v-6.943
	c0.746-0.631,1.894-1.147,2.813-1.147c1.663,0,2.008,1.032,2.008,2.496v5.595c0,0.286,0.172,0.517,0.458,0.517h0.688
	c0.288,0,0.46-0.23,0.46-0.517v-5.823C143.805,66.022,142.771,64.788,140.592,64.788"/>
<path fill="#3AA7DF" d="M-121.695,12.572c0-0.114,0.086-0.114,0.086-0.229C-121.608,12.458-121.608,12.572-121.695,12.572"/>
<path fill="#D72655" d="M-79.549,16.302c-0.315-0.315-0.947-0.946-1.578-1.464c-0.201-0.2-0.517-0.4-0.517-0.4
	c-5.193-1.464-10.988-0.201-16.698,3.013c-0.315,0.2-0.315,0.401-0.115,0.401c0.201,0.114,0.516,0.315,1.148,0.516
	c4.562,1.864,6.426,5.51,7.976,9.037l0.115,0.316c0.115,0.201,0.201,0.315,0.43,0.201c2.066-0.086,5.595,1.262,7.976,2.495
	c0.115,0.115,0.315,0.115,0.43,0c1.951-0.946,4.361-1.664,6.312-1.979c-0.201-1.435-0.603-2.696-1.033-4.045
	C-77.368,18.884-79.233,16.703-79.549,16.302"/>
<path fill="#9C1857" d="M-67.814,29.271L-67.814,29.271c0-0.087,0-0.087,0-0.202c-0.115-0.2-0.23-0.401-0.23-0.516
	c-3.73-8.091-8.091-11.418-11.189-13.197c-0.43-0.2-0.631-0.402-1.147-0.603c-0.517-0.23-1.262-0.431-1.262-0.431
	s0.229,0.2,0.517,0.431c0.631,0.516,1.262,1.118,1.578,1.434c0.315,0.431,2.181,2.611,4.246,8.206
	c0.517,1.349,0.832,2.61,1.033,4.045c0.201,1.578,0.315,3.214,0.315,4.792v0.315c0,0.086,0.115,0.286,0.115,0.286
	c0.086,0.115,3.213,3.328,5.394,7.891c0.402,0.831,0.717,1.894,1.033,2.926c0,0.201,0.115,0.603,0.201,0.833
	c0.115,0.315,0.201,0.315,0.315-0.115C-65.749,38.709-67.298,30.848-67.814,29.271"/>
<path fill="#9C1857" d="M-71.659,55.751c0.201-0.315,0.603-1.147,0.918-1.864c0.115-0.315,0.201-0.631,0.201-0.631
	c-0.201-5.395-3.099-10.473-7.976-15.063c-0.315-0.2-0.43-0.2-0.516,0c0,0.23-0.115,0.631-0.201,1.262
	c-0.43,4.993-3.328,7.775-6.254,10.387l-0.201,0.201c-0.086,0-0.086,0.2-0.086,0.401c0.717,1.979,0.516,5.709,0.086,8.406
	c0,0.115,0,0.315,0.114,0.431c1.549,1.664,2.898,3.644,3.845,5.394c1.233-0.631,2.381-1.349,3.529-2.268
	C-73.552,58.649-71.975,56.152-71.659,55.751"/>
<path fill="#662773" d="M-80.496,70.899L-80.496,70.899c0.115-0.087,0.115-0.087,0.115-0.087c0.086-0.113,0.402-0.315,0.402-0.429
	c6.542-6.025,8.32-11.219,9.152-14.748c0.086-0.4,0.201-0.717,0.201-1.233c0.086-0.516,0-1.349,0-1.349s-0.115,0.202-0.201,0.631
	c-0.316,0.718-0.631,1.551-0.947,1.866c-0.315,0.516-1.778,2.896-6.541,6.627c-1.147,0.946-2.295,1.664-3.529,2.295
	c-1.463,0.717-2.898,1.234-4.476,1.664c0,0-0.086,0.086-0.2,0.086c-0.086,0-0.201,0.229-0.201,0.229
	c-0.115,0.086-2.18,4.045-5.91,7.488c-0.746,0.573-1.578,1.319-2.381,1.837c-0.23,0.113-0.545,0.344-0.746,0.458
	c-0.315,0.173-0.315,0.288,0.201,0.173C-88.787,75.777-81.844,71.875-80.496,70.899"/>
<path fill="#282A5F" d="M-106.747,75.375c0.401,0.058,1.348,0.172,2.065,0.172c0.315,0,0.632,0.115,0.717,0
	c5.107-1.836,9.038-6.196,11.85-12.222c0.201-0.315,0.085-0.517-0.115-0.401c-0.2,0-0.603,0.086-1.233,0.2
	c-4.877,1.148-8.406-0.718-11.734-2.697l-0.316-0.113c-0.201-0.087-0.315-0.087-0.516,0c-1.664,1.262-5.308,2.295-8.004,2.696
	c-0.086,0-0.201,0.114-0.315,0.2c-1.033,1.979-2.583,3.959-3.931,5.308c1.033,1.033,2.066,1.866,3.213,2.668
	C-110.075,74.514-107.378,75.26-106.747,75.375"/>
<path fill="#1D61A1" d="M-123.99,71.761L-123.99,71.761c0.115,0.114,0.115,0.114,0.115,0.114l0,0
	c0.201,0.057,0.402,0.172,0.516,0.286c7.661,4.362,13.284,4.419,16.813,4.132c0.402,0,0.717-0.058,1.234-0.172
	c0.517-0.115,1.263-0.459,1.263-0.459s-0.316,0-0.746,0c-0.718,0-1.635-0.229-2.066-0.229c-0.517-0.058-3.328-0.804-8.292-4.132
	c-1.262-0.804-2.295-1.635-3.242-2.668c-1.119-1.147-2.066-2.41-3.013-3.759c0,0-0.086-0.086-0.086-0.2
	c-0.115-0.086-0.316-0.201-0.316-0.201c-0.114,0-4.562-0.832-9.037-3.328c-0.833-0.401-1.75-1.033-2.497-1.664
	c-0.085-0.086-0.516-0.401-0.602-0.516c-0.23-0.201-0.431-0.201-0.23,0.2C-131.163,65.305-125.224,70.699-123.99,71.761"/>
<path fill="#1D61A1" d="M-136.355,48.063c0,0.431,0.229,1.348,0.431,2.094c0.115,0.287,0.115,0.603,0.2,0.718
	c3.329,4.246,8.722,6.627,15.264,7.373c0.43,0,0.517-0.115,0.43-0.315c-0.115-0.201-0.315-0.517-0.631-1.147
	c-2.61-4.246-1.979-8.206-1.147-12.05l0.115-0.287c0-0.23,0-0.315-0.229-0.431c-1.75-1.147-3.845-4.36-4.964-6.742
	c-0.115-0.115-0.229-0.2-0.315-0.2c-2.181-0.431-4.476-1.264-6.226-2.095c-0.631,1.262-1.147,2.495-1.463,3.959
	C-136.557,44.647-136.355,47.545-136.355,48.063"/>
<path fill="#2B9BD7" d="M-138.105,30.619C-138.22,30.619-138.22,30.619-138.105,30.619c0,0.113,0,0.113-0.115,0.113l0,0
	c0,0.202-0.086,0.518-0.086,0.518c-1.779,8.722-0.115,14,1.233,17.328c0.201,0.431,0.316,0.632,0.516,1.147
	c0.316,0.517,0.747,1.033,0.747,1.033s-0.115-0.2-0.23-0.717c-0.2-0.718-0.401-1.664-0.401-2.066c0-0.545-0.315-3.443,1.349-9.152
	c0.401-1.434,0.832-2.582,1.549-3.93c0.717-1.464,1.664-2.697,2.61-4.046c0,0,0.086-0.115,0.086-0.229
	c0.115-0.087,0.115-0.316,0.115-0.316c0-0.086-0.631-4.562,0.315-9.525c0.201-0.946,0.517-1.979,0.832-2.926
	c0.086-0.201,0.201-0.604,0.287-0.717c0.115-0.316,0-0.432-0.287-0.115C-134.261,21.811-137.589,29.068-138.105,30.619"/>
<path fill="#2B9BD7" d="M-119.514,11.625c-0.43,0.201-1.262,0.632-1.894,1.033c-0.201,0.229-0.516,0.315-0.603,0.431
	c-3.013,4.446-3.529,10.386-2.181,16.813c0.086,0.401,0.201,0.401,0.402,0.315c0.115-0.115,0.43-0.431,0.832-0.946
	c3.213-3.845,7.259-4.447,11.017-4.763h0.316c0.2,0,0.287-0.202,0.401-0.315c0.631-2.066,2.897-4.992,4.792-6.857
	c0.085-0.087,0.085-0.2,0.085-0.315c-0.315-2.182-0.201-4.677,0-6.628c-1.463-0.229-2.697-0.315-4.16-0.229
	C-116.416,10.392-119.112,11.425-119.514,11.625"/>
<path fill="#86C3EB" d="M-103.534,4.367L-103.534,4.367h-0.201l0,0c-0.23,0-0.517,0-0.517,0.086
	c-8.837,1.062-13.312,4.276-16.009,6.657c-0.316,0.315-0.517,0.516-0.918,0.946c-0.43,0.402-0.746,1.033-0.746,1.033
	s0.229-0.115,0.631-0.431c0.631-0.401,1.463-0.832,1.865-1.033c0.517-0.2,3.127-1.348,9.152-1.549c1.435-0.115,2.783,0,4.131,0.201
	c1.578,0.2,3.127,0.717,4.676,1.232c0,0,0.115,0,0.201,0.115c0.114,0,0.315,0,0.315,0c0.115-0.115,4.161-2.065,9.238-2.696
	c0.947-0.115,1.98-0.2,3.013-0.115c0.229,0,0.631,0,0.832,0.115c0.315,0,0.43-0.115,0-0.315
	C-93.98,5.285-101.985,4.453-103.534,4.367"/>
</svg>
